<svg width="27" height="24" viewBox="0 0 27 24" fill="none" xmlns="http://www.w3.org/2000/svg">
<path d="M25.4599 6.60322L13.6707 0.241379C13.3242 0.0547127 12.9077 0.0547127 12.5624 0.241379L0.779069 6.60322C0.212067 6.91122 0.000900522 7.6182 0.30657 8.1852C0.516569 8.57603 0.91907 8.79771 1.33324 8.79771C1.5199 8.79771 1.71124 8.75337 1.8874 8.6577L2.74374 8.1957L4.59874 21.3207C4.85074 22.737 6.12707 23.7264 7.70207 23.7264H18.531C20.106 23.7264 21.3824 22.737 21.6367 21.2904L23.4894 8.19455L24.3492 8.65887C24.915 8.96571 25.6232 8.75453 25.9289 8.18753C26.2357 7.62053 26.0222 6.91237 25.4575 6.60671L25.4599 6.60322ZM13.1165 16.0357C11.0224 16.0357 9.3249 14.3382 9.3249 12.244C9.3249 10.1499 11.0224 8.45237 13.1165 8.45237C15.2107 8.45237 16.9082 10.1499 16.9082 12.244C16.9082 14.3382 15.2107 16.0357 13.1165 16.0357Z" fill="currentColor"/>
</svg>
